<?xml version="1.0" encoding="UTF-8" standalone="no"?>
<!DOCTYPE svg PUBLIC "-//W3C//DTD SVG 1.1//EN" "http://www.w3.org/Graphics/SVG/1.1/DTD/svg11.dtd">
<svg xmlns="http://www.w3.org/2000/svg" version="1.1" viewBox="0 0 357 356">
<g stroke-width="2.00" fill="none" stroke-linecap="butt">
<path stroke="#fdfefe" vector-effect="non-scaling-stroke" d="
  M 356.98 11.06
  Q 357.74 4.60 353.30 1.55
  Q 351.49 0.31 348.26 0.32
  Q 292.76 0.55 237.25 0.30
  Q 227.59 0.26 217.25 0.31
  Q 181.63 0.49 146.00 0.31
  Q 138.28 0.27 126.01 0.45
  Q 109.94 0.69 93.88 0.38
  Q 88.90 0.29 82.11 0.45
  Q 76.22 0.60 70.32 0.51
  Q 54.60 0.28 52.66 0.28
  Q 16.34 0.42 6.50 0.25
  Q 3.02 0.19 0.88 1.20
  A 1.22 0.81 -87.8 0 0 0.36 1.92
  L 0.00 3.19"
/>
<path stroke="#f9a5ad" vector-effect="non-scaling-stroke" d="
  M 85.31 122.04
  Q 84.41 129.98 90.02 135.48
  Q 97.67 143.00 106.21 149.50"
/>
<path stroke="#7ffde4" vector-effect="non-scaling-stroke" d="
  M 106.21 149.50
  Q 105.20 157.79 109.09 164.14
  Q 110.39 166.27 118.71 174.63
  Q 133.09 189.08 147.87 203.26"
/>
<path stroke="#fd7fed" vector-effect="non-scaling-stroke" d="
  M 147.87 203.26
  Q 135.13 216.14 122.35 229.84
  Q 118.57 233.89 118.53 239.50
  Q 118.48 245.57 120.54 251.25"
/>
<path stroke="#fd7fd1" vector-effect="non-scaling-stroke" d="
  M 120.54 251.25
  Q 123.68 260.09 130.71 266.25"
/>
<path stroke="#fa80aa" vector-effect="non-scaling-stroke" d="
  M 130.71 266.25
  Q 137.95 273.90 148.25 274.75
  Q 155.56 275.36 161.97 272.47
  Q 165.92 270.69 171.55 265.24
  Q 180.55 256.50 189.29 247.50"
/>
<path stroke="#f8d889" vector-effect="non-scaling-stroke" d="
  M 189.29 247.50
  Q 196.08 253.42 198.31 255.19
  Q 204.55 260.14 212.16 260.77
  Q 216.64 261.14 221.84 260.56
  Q 226.71 260.01 231.30 258.03
  Q 254.64 247.93 256.48 224.15
  Q 257.17 215.14 254.05 208.25
  Q 250.57 200.56 243.40 195.33"
/>
<path stroke="#f8b295" vector-effect="non-scaling-stroke" d="
  M 243.40 195.33
  Q 238.13 189.59 232.79 185.25"
/>
<path stroke="#fb8ba6" vector-effect="non-scaling-stroke" d="
  M 232.79 185.25
  L 228.25 181.04"
/>
<path stroke="#7fe3e1" vector-effect="non-scaling-stroke" d="
  M 228.25 181.04
  Q 235.82 178.01 240.69 169.94
  Q 244.86 163.02 253.31 155.06
  Q 259.43 149.30 268.30 139.45
  Q 272.31 135.00 273.70 131.80
  Q 275.59 127.43 275.79 122.50
  Q 276.09 114.93 273.71 107.75"
/>
<path stroke="#7ffae4" vector-effect="non-scaling-stroke" d="
  M 273.71 107.75
  Q 268.43 93.51 254.64 87.16
  Q 245.39 82.90 235.51 85.52
  Q 229.83 87.03 225.68 91.18
  Q 206.43 110.43 186.69 130.44
  A 0.62 0.62 -44.1 0 1 185.79 130.43
  Q 181.87 126.24 177.79 122.69
  Q 170.68 116.49 161.50 114.25
  Q 159.43 113.75 158.96 113.25"
/>
<path stroke="#f9a5ad" vector-effect="non-scaling-stroke" d="
  M 158.96 113.25
  Q 153.64 97.60 139.75 88.71"
/>
<path stroke="#f9c7a7" vector-effect="non-scaling-stroke" d="
  M 139.75 88.71
  Q 128.70 82.17 115.95 84.75
  Q 103.09 87.36 94.19 96.94
  Q 84.86 106.97 85.31 122.04"
/>
<path stroke="#f56e55" vector-effect="non-scaling-stroke" d="
  M 139.75 88.71
  L 132.98 95.66
  A 6.05 3.31 0.7 0 1 130.40 97.03
  Q 125.04 98.46 120.85 102.10
  Q 120.04 102.81 118.83 103.49
  Q 117.73 104.11 116.79 104.94
  Q 114.22 107.19 114.00 107.35
  Q 109.72 110.51 105.44 113.69
  Q 99.33 118.22 89.00 122.25
  Q 87.91 122.67 85.31 122.04"
/>
<path stroke="#7b5aaa" vector-effect="non-scaling-stroke" d="
  M 158.25 113.29
  Q 152.05 111.67 147.00 112.25
  Q 123.71 114.93 112.46 135.75"
/>
<path stroke="#7ba492" vector-effect="non-scaling-stroke" d="
  M 112.46 135.75
  L 106.21 149.50"
/>
<path stroke="#00dec6" vector-effect="non-scaling-stroke" d="
  M 273.71 107.75
  Q 271.41 108.61 272.50 111.01
  A 2.28 2.28 -33.1 0 1 271.94 113.66
  Q 266.97 118.04 260.19 119.35
  A 1.04 0.42 46.9 0 1 259.46 119.01
  Q 259.17 118.75 258.56 119.06
  Q 250.89 123.02 248.52 124.33
  Q 248.34 124.43 248.44 124.23
  Q 248.68 123.78 248.20 123.97
  Q 242.79 126.17 237.72 129.10
  Q 237.61 129.16 237.74 129.19
  L 237.94 129.23
  Q 238.42 129.34 237.88 129.56
  Q 230.18 132.72 223.20 137.22
  A 0.13 0.12 -40.8 0 0 223.18 137.41
  L 223.29 137.52
  A 0.31 0.29 -44.9 0 1 223.27 137.96
  Q 218.66 142.33 213.20 145.44
  Q 208.07 148.36 205.26 150.26
  Q 194.99 157.17 183.25 161.29"
/>
<path stroke="#0086df" vector-effect="non-scaling-stroke" d="
  M 183.25 161.29
  L 175.25 153.46"
/>
<path stroke="#00afe1" vector-effect="non-scaling-stroke" d="
  M 175.25 153.46
  Q 158.04 137.81 158.75 114.25
  Q 158.77 113.75 158.25 113.29"
/>
<path stroke="#7ba192" vector-effect="non-scaling-stroke" d="
  M 158.25 113.29
  L 158.96 113.25"
/>
<path stroke="#008adf" vector-effect="non-scaling-stroke" d="
  M 147.71 172.00
  L 162.79 187.50"
/>
<path stroke="#247ede" vector-effect="non-scaling-stroke" d="
  M 162.79 187.50
  Q 162.67 188.05 162.25 188.46"
/>
<path stroke="#7e7ed2" vector-effect="non-scaling-stroke" d="
  M 162.25 188.46
  L 147.87 203.26"
/>
<path stroke="#0040f6" vector-effect="non-scaling-stroke" d="
  M 175.25 153.46
  Q 174.52 154.73 173.40 155.26
  A 0.88 0.54 46.5 0 1 172.63 155.05
  Q 172.20 154.70 171.56 155.06
  Q 169.98 155.02 170.47 156.24
  A 0.54 0.53 -25.5 0 1 170.23 156.90
  Q 169.30 157.44 169.03 158.45
  A 0.98 0.81 -88.3 0 1 168.47 159.09
  Q 160.95 161.65 154.31 165.99
  Q 153.83 166.30 153.47 166.78
  Q 153.11 167.26 152.75 167.73
  Q 152.25 168.37 151.41 168.86
  Q 149.31 170.09 147.71 172.00"
/>
<path stroke="#00b2e1" vector-effect="non-scaling-stroke" d="
  M 147.71 172.00
  L 112.46 135.75"
/>
<path stroke="#7c6f89" vector-effect="non-scaling-stroke" d="
  M 228.25 181.04
  Q 222.18 177.24 216.11 173.44
  Q 204.24 166.03 190.30 168.41"
/>
<path stroke="#006fdc" vector-effect="non-scaling-stroke" d="
  M 190.30 168.41
  L 183.25 161.29"
/>
<path stroke="#7c17a1" vector-effect="non-scaling-stroke" d="
  M 190.30 168.41
  Q 190.06 169.35 190.50 169.96"
/>
<path stroke="#240cf3" vector-effect="non-scaling-stroke" d="
  M 190.50 169.96
  Q 187.97 168.91 185.34 166.19
  Q 183.93 164.74 182.55 166.21
  Q 181.84 166.97 181.22 167.98
  Q 180.55 169.08 179.92 169.73
  Q 171.89 178.07 164.09 186.62
  Q 163.90 186.83 163.27 187.13
  Q 163.01 187.26 162.79 187.50"
/>
<path stroke="#fc00c0" vector-effect="non-scaling-stroke" d="
  M 189.42 214.30
  Q 187.65 214.09 186.77 212.91
  A 1.40 0.95 68.0 0 0 186.01 212.40
  Q 184.44 212.13 182.95 212.78
  A 0.96 0.50 39.3 0 1 182.19 212.62
  Q 181.94 212.47 181.59 212.62
  Q 179.62 213.47 177.81 214.61
  Q 175.85 215.85 174.00 216.33
  Q 172.07 216.84 170.15 217.41
  Q 169.23 217.69 166.30 218.43
  Q 160.35 219.94 155.43 223.63
  Q 155.19 223.82 153.93 225.20
  Q 153.14 226.06 151.99 226.39
  A 2.00 1.41 5.3 0 0 151.16 226.87
  Q 145.51 232.94 139.69 237.44
  Q 136.07 240.23 133.29 243.34
  Q 131.11 245.80 129.25 247.17
  Q 127.00 248.84 124.75 250.50
  Q 123.07 251.74 120.54 251.25"
/>
<path stroke="#a00ca0" vector-effect="non-scaling-stroke" d="
  M 190.50 169.96
  L 215.96 196.87"
/>
<path stroke="#9e338f" vector-effect="non-scaling-stroke" d="
  M 215.96 196.87
  Q 215.21 204.99 212.54 213.00"
/>
<path stroke="#9e5983" vector-effect="non-scaling-stroke" d="
  M 212.54 213.00
  Q 206.43 231.42 191.89 244.47"
/>
<path stroke="#9f01a4" vector-effect="non-scaling-stroke" d="
  M 191.89 244.47
  Q 196.46 234.85 194.46 224.50"
/>
<path stroke="#a200cb" vector-effect="non-scaling-stroke" d="
  M 194.46 224.50
  Q 192.63 219.12 189.42 214.30"
/>
<path stroke="#a200e7" vector-effect="non-scaling-stroke" d="
  M 189.42 214.30
  Q 176.66 202.14 164.38 189.51
  Q 164.32 189.46 163.84 188.79
  Q 163.28 188.02 162.25 188.46"
/>
<path stroke="#f63f3d" vector-effect="non-scaling-stroke" d="
  M 232.79 185.25
  Q 229.61 187.59 223.56 190.81
  Q 219.97 192.73 215.96 196.87"
/>
<path stroke="#f9017d" vector-effect="non-scaling-stroke" d="
  M 194.46 224.50
  L 190.90 223.10
  A 0.88 0.74 31.7 0 0 190.02 223.23
  Q 187.80 225.41 185.54 227.18
  Q 185.17 227.46 182.67 228.92
  Q 181.37 229.68 179.94 230.94
  Q 177.66 232.93 173.51 235.11
  Q 172.21 235.79 170.21 237.25
  Q 168.95 238.16 166.94 239.44
  Q 160.14 243.73 153.32 248.00
  Q 153.25 248.04 148.25 251.03
  Q 141.57 255.04 134.81 260.81
  Q 134.18 261.36 134.43 261.87
  A 0.74 0.60 53.3 0 1 134.40 262.61
  L 133.03 264.33
  A 1.34 1.29 13.4 0 1 132.25 264.79
  Q 131.12 265.01 130.71 266.25"
/>
<path stroke="#f55935" vector-effect="non-scaling-stroke" d="
  M 189.29 247.50
  L 191.89 244.47"
/>
<path stroke="#f38c20" vector-effect="non-scaling-stroke" d="
  M 243.40 195.33
  Q 232.66 200.41 222.67 206.97
  Q 222.32 207.20 222.00 207.69
  Q 221.29 208.81 219.99 208.97
  A 1.52 1.00 9.2 0 0 219.15 209.35
  L 215.26 213.56
  A 0.56 0.55 38.2 0 1 214.54 213.64
  Q 213.64 213.07 212.54 213.00"
/>
<path stroke="#dae5e6" vector-effect="non-scaling-stroke" d="
  M 3.94 350.42
  Q 3.55 352.04 3.55 353.68
  A 0.74 0.70 -81.2 0 0 4.03 354.37
  Q 5.71 354.94 5.17 352.95
  Q 4.83 351.71 4.56 350.43
  Q 4.28 349.05 3.94 350.42"
/>
<path stroke="#dae5e6" vector-effect="non-scaling-stroke" d="
  M 8.8977 353.2151
  A 1.03 0.61 -32.6 0 0 7.7013 353.2561
  A 1.03 0.61 -32.6 0 0 7.1623 354.3249
  A 1.03 0.61 -32.6 0 0 8.3587 354.2839
  A 1.03 0.61 -32.6 0 0 8.8977 353.2151"
/>
</g>
<g>
<path fill="#fdfefe" d="
  M 0.00 0.00
  L 357.00 0.00
  L 356.98 11.06
  Q 357.74 4.60 353.30 1.55
  Q 351.49 0.31 348.26 0.32
  Q 292.76 0.55 237.25 0.30
  Q 227.59 0.26 217.25 0.31
  Q 181.63 0.49 146.00 0.31
  Q 138.28 0.27 126.01 0.45
  Q 109.94 0.69 93.88 0.38
  Q 88.90 0.29 82.11 0.45
  Q 76.22 0.60 70.32 0.51
  Q 54.60 0.28 52.66 0.28
  Q 16.34 0.42 6.50 0.25
  Q 3.02 0.19 0.88 1.20
  A 1.22 0.81 -87.8 0 0 0.36 1.92
  L 0.00 3.19
  L 0.00 0.00
  Z"
/>
<path fill="#fdfefe" d="
  M 356.98 11.06
  L 357.00 356.00
  L 0.00 356.00
  L 0.00 3.19
  L 0.36 1.92
  A 1.22 0.81 -87.8 0 1 0.88 1.20
  Q 3.02 0.19 6.50 0.25
  Q 16.34 0.42 52.66 0.28
  Q 54.60 0.28 70.32 0.51
  Q 76.22 0.60 82.11 0.45
  Q 88.90 0.29 93.88 0.38
  Q 109.94 0.69 126.01 0.45
  Q 138.28 0.27 146.00 0.31
  Q 181.63 0.49 217.25 0.31
  Q 227.59 0.26 237.25 0.30
  Q 292.76 0.55 348.26 0.32
  Q 351.49 0.31 353.30 1.55
  Q 357.74 4.60 356.98 11.06
  Z
  M 85.31 122.04
  Q 84.41 129.98 90.02 135.48
  Q 97.67 143.00 106.21 149.50
  Q 105.20 157.79 109.09 164.14
  Q 110.39 166.27 118.71 174.63
  Q 133.09 189.08 147.87 203.26
  Q 135.13 216.14 122.35 229.84
  Q 118.57 233.89 118.53 239.50
  Q 118.48 245.57 120.54 251.25
  Q 123.68 260.09 130.71 266.25
  Q 137.95 273.90 148.25 274.75
  Q 155.56 275.36 161.97 272.47
  Q 165.92 270.69 171.55 265.24
  Q 180.55 256.50 189.29 247.50
  Q 196.08 253.42 198.31 255.19
  Q 204.55 260.14 212.16 260.77
  Q 216.64 261.14 221.84 260.56
  Q 226.71 260.01 231.30 258.03
  Q 254.64 247.93 256.48 224.15
  Q 257.17 215.14 254.05 208.25
  Q 250.57 200.56 243.40 195.33
  Q 238.13 189.59 232.79 185.25
  L 228.25 181.04
  Q 235.82 178.01 240.69 169.94
  Q 244.86 163.02 253.31 155.06
  Q 259.43 149.30 268.30 139.45
  Q 272.31 135.00 273.70 131.80
  Q 275.59 127.43 275.79 122.50
  Q 276.09 114.93 273.71 107.75
  Q 268.43 93.51 254.64 87.16
  Q 245.39 82.90 235.51 85.52
  Q 229.83 87.03 225.68 91.18
  Q 206.43 110.43 186.69 130.44
  A 0.62 0.62 -44.1 0 1 185.79 130.43
  Q 181.87 126.24 177.79 122.69
  Q 170.68 116.49 161.50 114.25
  Q 159.43 113.75 158.96 113.25
  Q 153.64 97.60 139.75 88.71
  Q 128.70 82.17 115.95 84.75
  Q 103.09 87.36 94.19 96.94
  Q 84.86 106.97 85.31 122.04
  Z
  M 3.94 350.42
  Q 3.55 352.04 3.55 353.68
  A 0.74 0.70 -81.2 0 0 4.03 354.37
  Q 5.71 354.94 5.17 352.95
  Q 4.83 351.71 4.56 350.43
  Q 4.28 349.05 3.94 350.42
  Z
  M 8.8977 353.2151
  A 1.03 0.61 -32.6 0 0 7.7013 353.2561
  A 1.03 0.61 -32.6 0 0 7.1623 354.3249
  A 1.03 0.61 -32.6 0 0 8.3587 354.2839
  A 1.03 0.61 -32.6 0 0 8.8977 353.2151
  Z"
/>
</g>
<g>
<path fill="#f5904f" d="
  M 139.75 88.71
  L 132.98 95.66
  A 6.05 3.31 0.7 0 1 130.40 97.03
  Q 125.04 98.46 120.85 102.10
  Q 120.04 102.81 118.83 103.49
  Q 117.73 104.11 116.79 104.94
  Q 114.22 107.19 114.00 107.35
  Q 109.72 110.51 105.44 113.69
  Q 99.33 118.22 89.00 122.25
  Q 87.91 122.67 85.31 122.04
  Q 84.86 106.97 94.19 96.94
  Q 103.09 87.36 115.95 84.75
  Q 128.70 82.17 139.75 88.71
  Z"
/>
<path fill="#00f5c9" d="
  M 273.71 107.75
  Q 271.41 108.61 272.50 111.01
  A 2.28 2.28 -33.1 0 1 271.94 113.66
  Q 266.97 118.04 260.19 119.35
  A 1.04 0.42 46.9 0 1 259.46 119.01
  Q 259.17 118.75 258.56 119.06
  Q 250.89 123.02 248.52 124.33
  Q 248.34 124.43 248.44 124.23
  Q 248.68 123.78 248.20 123.97
  Q 242.79 126.17 237.72 129.10
  Q 237.61 129.16 237.74 129.19
  L 237.94 129.23
  Q 238.42 129.34 237.88 129.56
  Q 230.18 132.72 223.20 137.22
  A 0.13 0.12 -40.8 0 0 223.18 137.41
  L 223.29 137.52
  A 0.31 0.29 -44.9 0 1 223.27 137.96
  Q 218.66 142.33 213.20 145.44
  Q 208.07 148.36 205.26 150.26
  Q 194.99 157.17 183.25 161.29
  L 175.25 153.46
  Q 158.04 137.81 158.75 114.25
  Q 158.77 113.75 158.25 113.29
  L 158.96 113.25
  Q 159.43 113.75 161.50 114.25
  Q 170.68 116.49 177.79 122.69
  Q 181.87 126.24 185.79 130.43
  A 0.62 0.62 -44.1 0 0 186.69 130.44
  Q 206.43 110.43 225.68 91.18
  Q 229.83 87.03 235.51 85.52
  Q 245.39 82.90 254.64 87.16
  Q 268.43 93.51 273.71 107.75
  Z"
/>
<path fill="#f54c5b" d="
  M 139.75 88.71
  Q 153.64 97.60 158.96 113.25
  L 158.25 113.29
  Q 152.05 111.67 147.00 112.25
  Q 123.71 114.93 112.46 135.75
  L 106.21 149.50
  Q 97.67 143.00 90.02 135.48
  Q 84.41 129.98 85.31 122.04
  Q 87.91 122.67 89.00 122.25
  Q 99.33 118.22 105.44 113.69
  Q 109.72 110.51 114.00 107.35
  Q 114.22 107.19 116.79 104.94
  Q 117.73 104.11 118.83 103.49
  Q 120.04 102.81 120.85 102.10
  Q 125.04 98.46 130.40 97.03
  A 6.05 3.31 0.7 0 0 132.98 95.66
  L 139.75 88.71
  Z"
/>
<path fill="#00c7c3" d="
  M 273.71 107.75
  Q 276.09 114.93 275.79 122.50
  Q 275.59 127.43 273.70 131.80
  Q 272.31 135.00 268.30 139.45
  Q 259.43 149.30 253.31 155.06
  Q 244.86 163.02 240.69 169.94
  Q 235.82 178.01 228.25 181.04
  Q 222.18 177.24 216.11 173.44
  Q 204.24 166.03 190.30 168.41
  L 183.25 161.29
  Q 194.99 157.17 205.26 150.26
  Q 208.07 148.36 213.20 145.44
  Q 218.66 142.33 223.27 137.96
  A 0.31 0.29 -44.9 0 0 223.29 137.52
  L 223.18 137.41
  A 0.13 0.12 -40.8 0 1 223.20 137.22
  Q 230.18 132.72 237.88 129.56
  Q 238.42 129.34 237.94 129.23
  L 237.74 129.19
  Q 237.61 129.16 237.72 129.10
  Q 242.79 126.17 248.20 123.97
  Q 248.68 123.78 248.44 124.23
  Q 248.34 124.43 248.52 124.33
  Q 250.89 123.02 258.56 119.06
  Q 259.17 118.75 259.46 119.01
  A 1.04 0.42 46.9 0 0 260.19 119.35
  Q 266.97 118.04 271.94 113.66
  A 2.28 2.28 -33.1 0 0 272.50 111.01
  Q 271.41 108.61 273.71 107.75
  Z"
/>
<path fill="#0068f8" d="
  M 158.25 113.29
  Q 158.77 113.75 158.75 114.25
  Q 158.04 137.81 175.25 153.46
  Q 174.52 154.73 173.40 155.26
  A 0.88 0.54 46.5 0 1 172.63 155.05
  Q 172.20 154.70 171.56 155.06
  Q 169.98 155.02 170.47 156.24
  A 0.54 0.53 -25.5 0 1 170.23 156.90
  Q 169.30 157.44 169.03 158.45
  A 0.98 0.81 -88.3 0 1 168.47 159.09
  Q 160.95 161.65 154.31 165.99
  Q 153.83 166.30 153.47 166.78
  Q 153.11 167.26 152.75 167.73
  Q 152.25 168.37 151.41 168.86
  Q 149.31 170.09 147.71 172.00
  L 112.46 135.75
  Q 123.71 114.93 147.00 112.25
  Q 152.05 111.67 158.25 113.29
  Z"
/>
<path fill="#00fcc9" d="
  M 112.46 135.75
  L 147.71 172.00
  L 162.79 187.50
  Q 162.67 188.05 162.25 188.46
  L 147.87 203.26
  Q 133.09 189.08 118.71 174.63
  Q 110.39 166.27 109.09 164.14
  Q 105.20 157.79 106.21 149.50
  L 112.46 135.75
  Z"
/>
<path fill="#0017f4" d="
  M 175.25 153.46
  L 183.25 161.29
  L 190.30 168.41
  Q 190.06 169.35 190.50 169.96
  Q 187.97 168.91 185.34 166.19
  Q 183.93 164.74 182.55 166.21
  Q 181.84 166.97 181.22 167.98
  Q 180.55 169.08 179.92 169.73
  Q 171.89 178.07 164.09 186.62
  Q 163.90 186.83 163.27 187.13
  Q 163.01 187.26 162.79 187.50
  L 147.71 172.00
  Q 149.31 170.09 151.41 168.86
  Q 152.25 168.37 152.75 167.73
  Q 153.11 167.26 153.47 166.78
  Q 153.83 166.30 154.31 165.99
  Q 160.95 161.65 168.47 159.09
  A 0.98 0.81 -88.3 0 0 169.03 158.45
  Q 169.30 157.44 170.23 156.90
  A 0.54 0.53 -25.5 0 0 170.47 156.24
  Q 169.98 155.02 171.56 155.06
  Q 172.20 154.70 172.63 155.05
  A 0.88 0.54 46.5 0 0 173.40 155.26
  Q 174.52 154.73 175.25 153.46
  Z"
/>
<path fill="#4800f2" d="
  M 190.50 169.96
  L 215.96 196.87
  Q 215.21 204.99 212.54 213.00
  Q 206.43 231.42 191.89 244.47
  Q 196.46 234.85 194.46 224.50
  Q 192.63 219.12 189.42 214.30
  Q 176.66 202.14 164.38 189.51
  Q 164.32 189.46 163.84 188.79
  Q 163.28 188.02 162.25 188.46
  Q 162.67 188.05 162.79 187.50
  Q 163.01 187.26 163.27 187.13
  Q 163.90 186.83 164.09 186.62
  Q 171.89 178.07 179.92 169.73
  Q 180.55 169.08 181.22 167.98
  Q 181.84 166.97 182.55 166.21
  Q 183.93 164.74 185.34 166.19
  Q 187.97 168.91 190.50 169.96
  Z"
/>
<path fill="#f8174e" d="
  M 228.25 181.04
  L 232.79 185.25
  Q 229.61 187.59 223.56 190.81
  Q 219.97 192.73 215.96 196.87
  L 190.50 169.96
  Q 190.06 169.35 190.30 168.41
  Q 204.24 166.03 216.11 173.44
  Q 222.18 177.24 228.25 181.04
  Z"
/>
<path fill="#f3662c" d="
  M 232.79 185.25
  Q 238.13 189.59 243.40 195.33
  Q 232.66 200.41 222.67 206.97
  Q 222.32 207.20 222.00 207.69
  Q 221.29 208.81 219.99 208.97
  A 1.52 1.00 9.2 0 0 219.15 209.35
  L 215.26 213.56
  A 0.56 0.55 38.2 0 1 214.54 213.64
  Q 213.64 213.07 212.54 213.00
  Q 215.21 204.99 215.96 196.87
  Q 219.97 192.73 223.56 190.81
  Q 229.61 187.59 232.79 185.25
  Z"
/>
<path fill="#fc00db" d="
  M 189.42 214.30
  Q 187.65 214.09 186.77 212.91
  A 1.40 0.95 68.0 0 0 186.01 212.40
  Q 184.44 212.13 182.95 212.78
  A 0.96 0.50 39.3 0 1 182.19 212.62
  Q 181.94 212.47 181.59 212.62
  Q 179.62 213.47 177.81 214.61
  Q 175.85 215.85 174.00 216.33
  Q 172.07 216.84 170.15 217.41
  Q 169.23 217.69 166.30 218.43
  Q 160.35 219.94 155.43 223.63
  Q 155.19 223.82 153.93 225.20
  Q 153.14 226.06 151.99 226.39
  A 2.00 1.41 5.3 0 0 151.16 226.87
  Q 145.51 232.94 139.69 237.44
  Q 136.07 240.23 133.29 243.34
  Q 131.11 245.80 129.25 247.17
  Q 127.00 248.84 124.75 250.50
  Q 123.07 251.74 120.54 251.25
  Q 118.48 245.57 118.53 239.50
  Q 118.57 233.89 122.35 229.84
  Q 135.13 216.14 147.87 203.26
  L 162.25 188.46
  Q 163.28 188.02 163.84 188.79
  Q 164.32 189.46 164.38 189.51
  Q 176.66 202.14 189.42 214.30
  Z"
/>
<path fill="#f3b113" d="
  M 243.40 195.33
  Q 250.57 200.56 254.05 208.25
  Q 257.17 215.14 256.48 224.15
  Q 254.64 247.93 231.30 258.03
  Q 226.71 260.01 221.84 260.56
  Q 216.64 261.14 212.16 260.77
  Q 204.55 260.14 198.31 255.19
  Q 196.08 253.42 189.29 247.50
  L 191.89 244.47
  Q 206.43 231.42 212.54 213.00
  Q 213.64 213.07 214.54 213.64
  A 0.56 0.55 38.2 0 0 215.26 213.56
  L 219.15 209.35
  A 1.52 1.00 9.2 0 1 219.99 208.97
  Q 221.29 208.81 222.00 207.69
  Q 222.32 207.20 222.67 206.97
  Q 232.66 200.41 243.40 195.33
  Z"
/>
<path fill="#fc00a4" d="
  M 189.42 214.30
  Q 192.63 219.12 194.46 224.50
  L 190.90 223.10
  A 0.88 0.74 31.7 0 0 190.02 223.23
  Q 187.80 225.41 185.54 227.18
  Q 185.17 227.46 182.67 228.92
  Q 181.37 229.68 179.94 230.94
  Q 177.66 232.93 173.51 235.11
  Q 172.21 235.79 170.21 237.25
  Q 168.95 238.16 166.94 239.44
  Q 160.14 243.73 153.32 248.00
  Q 153.25 248.04 148.25 251.03
  Q 141.57 255.04 134.81 260.81
  Q 134.18 261.36 134.43 261.87
  A 0.74 0.60 53.3 0 1 134.40 262.61
  L 133.03 264.33
  A 1.34 1.29 13.4 0 1 132.25 264.79
  Q 131.12 265.01 130.71 266.25
  Q 123.68 260.09 120.54 251.25
  Q 123.07 251.74 124.75 250.50
  Q 127.00 248.84 129.25 247.17
  Q 131.11 245.80 133.29 243.34
  Q 136.07 240.23 139.69 237.44
  Q 145.51 232.94 151.16 226.87
  A 2.00 1.41 5.3 0 1 151.99 226.39
  Q 153.14 226.06 153.93 225.20
  Q 155.19 223.82 155.43 223.63
  Q 160.35 219.94 166.30 218.43
  Q 169.23 217.69 170.15 217.41
  Q 172.07 216.84 174.00 216.33
  Q 175.85 215.85 177.81 214.61
  Q 179.62 213.47 181.59 212.62
  Q 181.94 212.47 182.19 212.62
  A 0.96 0.50 39.3 0 0 182.95 212.78
  Q 184.44 212.13 186.01 212.40
  A 1.40 0.95 68.0 0 1 186.77 212.91
  Q 187.65 214.09 189.42 214.30
  Z"
/>
<path fill="#f60156" d="
  M 194.46 224.50
  Q 196.46 234.85 191.89 244.47
  L 189.29 247.50
  Q 180.55 256.50 171.55 265.24
  Q 165.92 270.69 161.97 272.47
  Q 155.56 275.36 148.25 274.75
  Q 137.95 273.90 130.71 266.25
  Q 131.12 265.01 132.25 264.79
  A 1.34 1.29 13.4 0 0 133.03 264.33
  L 134.40 262.61
  A 0.74 0.60 53.3 0 0 134.43 261.87
  Q 134.18 261.36 134.81 260.81
  Q 141.57 255.04 148.25 251.03
  Q 153.25 248.04 153.32 248.00
  Q 160.14 243.73 166.94 239.44
  Q 168.95 238.16 170.21 237.25
  Q 172.21 235.79 173.51 235.11
  Q 177.66 232.93 179.94 230.94
  Q 181.37 229.68 182.67 228.92
  Q 185.17 227.46 185.54 227.18
  Q 187.80 225.41 190.02 223.23
  A 0.88 0.74 31.7 0 1 190.90 223.10
  L 194.46 224.50
  Z"
/>
<path fill="#b6cccd" d="
  M 3.94 350.42
  Q 4.28 349.05 4.56 350.43
  Q 4.83 351.71 5.17 352.95
  Q 5.71 354.94 4.03 354.37
  A 0.74 0.70 -81.2 0 1 3.55 353.68
  Q 3.55 352.04 3.94 350.42
  Z"
/>
<ellipse fill="#b6cccd" cx="0.00" cy="0.00" transform="translate(8.03,353.77) rotate(-32.6)" rx="1.03" ry="0.61"/>
</g>
</svg>
